<svg width="204" height="196" viewBox="0 0 204 196" fill="none" xmlns="http://www.w3.org/2000/svg">
<path d="M190 40H147.6C146.133 28.9455 140.699 18.8004 132.311 11.4522C123.923 4.10402 113.151 0.0531006 102 0.0531006C90.8485 0.0531006 80.0767 4.10402 71.6886 11.4522C63.3006 18.8004 57.8674 28.9455 56.4 40H14C10.287 40 6.72602 41.475 4.10051 44.1005C1.475 46.726 0 50.287 0 54V182C0 185.713 1.475 189.274 4.10051 191.899C6.72602 194.525 10.287 196 14 196H190C193.713 196 197.274 194.525 199.899 191.899C202.525 189.274 204 185.713 204 182V54C204 50.287 202.525 46.726 199.899 44.1005C197.274 41.475 193.713 40 190 40ZM102 12C109.977 12.0117 117.698 14.8198 123.819 19.9357C129.94 25.0515 134.073 32.1514 135.5 40H68.5C69.927 32.1514 74.0605 25.0515 80.1813 19.9357C86.3021 14.8198 94.0228 12.0117 102 12V12ZM192 182C192 182.53 191.789 183.039 191.414 183.414C191.039 183.789 190.53 184 190 184H14C13.4696 184 12.9609 183.789 12.5858 183.414C12.2107 183.039 12 182.53 12 182V54C12 53.4696 12.2107 52.9609 12.5858 52.5858C12.9609 52.2107 13.4696 52 14 52H56V78C56 79.5913 56.6321 81.1174 57.7574 82.2426C58.8826 83.3679 60.4087 84 62 84C63.5913 84 65.1174 83.3679 66.2426 82.2426C67.3679 81.1174 68 79.5913 68 78V52H136V78C136 79.5913 136.632 81.1174 137.757 82.2426C138.883 83.3679 140.409 84 142 84C143.591 84 145.117 83.3679 146.243 82.2426C147.368 81.1174 148 79.5913 148 78V52H190C190.53 52 191.039 52.2107 191.414 52.5858C191.789 52.9609 192 53.4696 192 54V182Z" fill="black"/>
</svg>
