<svg width="56" height="37" viewBox="0 0 56 37" fill="none" xmlns="http://www.w3.org/2000/svg">
<path fill-rule="evenodd" clip-rule="evenodd" d="M2.15385 0C1.58261 0 1.03477 0.216567 0.630847 0.602059C0.226922 0.98755 0 1.51039 0 2.05556C0 2.60072 0.226922 3.12356 0.630847 3.50905C1.03477 3.89454 1.58261 4.11111 2.15385 4.11111H53.8462C54.4174 4.11111 54.9652 3.89454 55.3692 3.50905C55.7731 3.12356 56 2.60072 56 2.05556C56 1.51039 55.7731 0.98755 55.3692 0.602059C54.9652 0.216567 54.4174 0 53.8462 0H2.15385ZM0 18.5C0 17.9548 0.226922 17.432 0.630847 17.0465C1.03477 16.661 1.58261 16.4444 2.15385 16.4444H53.8462C54.4174 16.4444 54.9652 16.661 55.3692 17.0465C55.7731 17.432 56 17.9548 56 18.5C56 19.0452 55.7731 19.568 55.3692 19.9535C54.9652 20.339 54.4174 20.5556 53.8462 20.5556H2.15385C1.58261 20.5556 1.03477 20.339 0.630847 19.9535C0.226922 19.568 0 19.0452 0 18.5ZM0 34.9444C0 34.3993 0.226922 33.8764 0.630847 33.4909C1.03477 33.1055 1.58261 32.8889 2.15385 32.8889H53.8462C54.4174 32.8889 54.9652 33.1055 55.3692 33.4909C55.7731 33.8764 56 34.3993 56 34.9444C56 35.4896 55.7731 36.0125 55.3692 36.3979C54.9652 36.7834 54.4174 37 53.8462 37H2.15385C1.58261 37 1.03477 36.7834 0.630847 36.3979C0.226922 36.0125 0 35.4896 0 34.9444Z" fill="black"/>
</svg>
