<svg width="86" height="59" viewBox="0 0 86 59" fill="none" xmlns="http://www.w3.org/2000/svg">
<path d="M15.3658 50.976V38.94C15.3658 37.996 15.2074 37.3929 14.8906 37.1307C14.6265 36.816 14.0193 36.6587 13.0688 36.6587H7.20766C2.40255 36.6587 0 34.3249 0 29.6573V16.6773C0 12.0622 2.45536 9.75466 7.36607 9.75466H15.1282C20.0389 9.75466 22.4942 12.0622 22.4942 16.6773V23.9147H15.2866V17.7787C15.2866 16.8347 15.1282 16.2316 14.8113 15.9693C14.4945 15.6547 13.8609 15.4973 12.9104 15.4973H9.58381C8.63335 15.4973 7.99971 15.6547 7.68289 15.9693C7.36607 16.2316 7.20766 16.8347 7.20766 17.7787V28.7133C7.20766 29.6573 7.36607 30.2867 7.68289 30.6013C7.99971 30.8636 8.63335 30.9947 9.58381 30.9947H15.3658C20.2237 30.9947 22.6527 33.3022 22.6527 37.9173V52.0773C22.6527 56.6924 20.1709 59 15.2074 59H7.52448C2.61377 59 0.15841 56.6924 0.15841 52.0773V44.84H7.36607V50.976C7.36607 51.92 7.52448 52.5493 7.8413 52.864C8.15812 53.1262 8.79176 53.2573 9.74222 53.2573H13.0688C14.0193 53.2573 14.6265 53.1262 14.8906 52.864C15.2074 52.5493 15.3658 51.92 15.3658 50.976Z" fill="black"/>
<path d="M45.9649 9.75466H53.1726V52.0773C53.1726 56.6924 50.6908 59 45.7273 59H36.9356C31.972 59 29.4903 56.6924 29.4903 52.0773V9.75466H36.6979V50.976C36.6979 51.92 36.8563 52.5493 37.1732 52.864C37.49 53.1262 38.1236 53.2573 39.0741 53.2573H43.5888C44.592 53.2573 45.2257 53.1262 45.4897 52.864C45.8065 52.5493 45.9649 51.92 45.9649 50.976V9.75466Z" fill="black"/>
<path d="M61.3672 9.75466H78.6339C83.5446 9.75466 86 12.0622 86 16.6773V52.0773C86 56.6924 83.5446 59 78.6339 59H61.3672V9.75466ZM78.7923 51.1333V17.6213C78.7923 16.6773 78.6339 16.0742 78.3171 15.812C78.0003 15.4973 77.3667 15.34 76.4162 15.34H68.5749V53.4147H76.4162C77.3667 53.4147 78.0003 53.2836 78.3171 53.0213C78.6339 52.7067 78.7923 52.0773 78.7923 51.1333Z" fill="black"/>
<path d="M46.0009 0H53.0964V7.375H46.0009V0Z" fill="#960404"/>
<path d="M29.4999 0H36.5953V7.375H29.4999V0Z" fill="#960404"/>
</svg>
